<mxfile host="app.diagrams.net" agent="Mozilla/5.0 (Windows NT 10.0; Win64; x64) AppleWebKit/537.36 (KHTML, like Gecko) Chrome/141.0.0.0 Safari/537.36" version="28.2.8">
  <diagram name="Halaman-1" id="pw9VI9DvZ9Ld1ELJMac2">
    <mxGraphModel dx="1106" dy="605" grid="1" gridSize="10" guides="1" tooltips="1" connect="1" arrows="1" fold="1" page="1" pageScale="1" pageWidth="827" pageHeight="1169" math="0" shadow="0">
      <root>
        <mxCell id="0" />
        <mxCell id="1" parent="0" />
        <mxCell id="zHnRFIF9AN3d5s7f-52Q-3" value="" style="edgeStyle=orthogonalEdgeStyle;rounded=0;orthogonalLoop=1;jettySize=auto;html=1;" edge="1" parent="1" source="zHnRFIF9AN3d5s7f-52Q-1" target="zHnRFIF9AN3d5s7f-52Q-2">
          <mxGeometry relative="1" as="geometry" />
        </mxCell>
        <mxCell id="zHnRFIF9AN3d5s7f-52Q-1" value="Start" style="strokeWidth=2;html=1;shape=mxgraph.flowchart.terminator;whiteSpace=wrap;" vertex="1" parent="1">
          <mxGeometry x="210" y="60" width="100" height="60" as="geometry" />
        </mxCell>
        <mxCell id="zHnRFIF9AN3d5s7f-52Q-5" value="" style="edgeStyle=orthogonalEdgeStyle;rounded=0;orthogonalLoop=1;jettySize=auto;html=1;" edge="1" parent="1" source="zHnRFIF9AN3d5s7f-52Q-2" target="zHnRFIF9AN3d5s7f-52Q-4">
          <mxGeometry relative="1" as="geometry" />
        </mxCell>
        <mxCell id="zHnRFIF9AN3d5s7f-52Q-2" value="i = 1" style="shape=parallelogram;perimeter=parallelogramPerimeter;whiteSpace=wrap;html=1;fixedSize=1;" vertex="1" parent="1">
          <mxGeometry x="200" y="170" width="120" height="60" as="geometry" />
        </mxCell>
        <mxCell id="zHnRFIF9AN3d5s7f-52Q-7" value="" style="edgeStyle=orthogonalEdgeStyle;rounded=0;orthogonalLoop=1;jettySize=auto;html=1;" edge="1" parent="1" source="zHnRFIF9AN3d5s7f-52Q-4" target="zHnRFIF9AN3d5s7f-52Q-6">
          <mxGeometry relative="1" as="geometry" />
        </mxCell>
        <mxCell id="zHnRFIF9AN3d5s7f-52Q-9" value="" style="edgeStyle=orthogonalEdgeStyle;rounded=0;orthogonalLoop=1;jettySize=auto;html=1;" edge="1" parent="1" source="zHnRFIF9AN3d5s7f-52Q-4" target="zHnRFIF9AN3d5s7f-52Q-8">
          <mxGeometry relative="1" as="geometry" />
        </mxCell>
        <mxCell id="zHnRFIF9AN3d5s7f-52Q-4" value="i &amp;lt;= 5" style="rhombus;whiteSpace=wrap;html=1;" vertex="1" parent="1">
          <mxGeometry x="220" y="280" width="80" height="80" as="geometry" />
        </mxCell>
        <mxCell id="zHnRFIF9AN3d5s7f-52Q-6" value="Finish" style="strokeWidth=2;html=1;shape=mxgraph.flowchart.terminator;whiteSpace=wrap;" vertex="1" parent="1">
          <mxGeometry x="380" y="290" width="100" height="60" as="geometry" />
        </mxCell>
        <mxCell id="zHnRFIF9AN3d5s7f-52Q-11" value="" style="edgeStyle=orthogonalEdgeStyle;rounded=0;orthogonalLoop=1;jettySize=auto;html=1;" edge="1" parent="1" source="zHnRFIF9AN3d5s7f-52Q-8" target="zHnRFIF9AN3d5s7f-52Q-10">
          <mxGeometry relative="1" as="geometry" />
        </mxCell>
        <mxCell id="zHnRFIF9AN3d5s7f-52Q-8" value="i = i +1" style="rounded=0;whiteSpace=wrap;html=1;" vertex="1" parent="1">
          <mxGeometry x="200" y="400" width="120" height="60" as="geometry" />
        </mxCell>
        <mxCell id="zHnRFIF9AN3d5s7f-52Q-13" value="" style="edgeStyle=orthogonalEdgeStyle;rounded=0;orthogonalLoop=1;jettySize=auto;html=1;" edge="1" parent="1" source="zHnRFIF9AN3d5s7f-52Q-10" target="zHnRFIF9AN3d5s7f-52Q-12">
          <mxGeometry relative="1" as="geometry" />
        </mxCell>
        <mxCell id="zHnRFIF9AN3d5s7f-52Q-10" value="j = 1" style="shape=parallelogram;perimeter=parallelogramPerimeter;whiteSpace=wrap;html=1;fixedSize=1;" vertex="1" parent="1">
          <mxGeometry x="200" y="510" width="120" height="60" as="geometry" />
        </mxCell>
        <mxCell id="zHnRFIF9AN3d5s7f-52Q-15" value="" style="edgeStyle=orthogonalEdgeStyle;rounded=0;orthogonalLoop=1;jettySize=auto;html=1;" edge="1" parent="1" source="zHnRFIF9AN3d5s7f-52Q-12" target="zHnRFIF9AN3d5s7f-52Q-14">
          <mxGeometry relative="1" as="geometry" />
        </mxCell>
        <mxCell id="zHnRFIF9AN3d5s7f-52Q-19" value="" style="edgeStyle=orthogonalEdgeStyle;rounded=0;orthogonalLoop=1;jettySize=auto;html=1;" edge="1" parent="1" source="zHnRFIF9AN3d5s7f-52Q-12" target="zHnRFIF9AN3d5s7f-52Q-18">
          <mxGeometry relative="1" as="geometry" />
        </mxCell>
        <mxCell id="zHnRFIF9AN3d5s7f-52Q-12" value="j &amp;lt;= 5" style="rhombus;whiteSpace=wrap;html=1;" vertex="1" parent="1">
          <mxGeometry x="220" y="610" width="80" height="80" as="geometry" />
        </mxCell>
        <mxCell id="zHnRFIF9AN3d5s7f-52Q-14" value="&quot; &quot;" style="shape=parallelogram;perimeter=parallelogramPerimeter;whiteSpace=wrap;html=1;fixedSize=1;" vertex="1" parent="1">
          <mxGeometry x="370" y="620" width="120" height="60" as="geometry" />
        </mxCell>
        <mxCell id="zHnRFIF9AN3d5s7f-52Q-17" style="edgeStyle=orthogonalEdgeStyle;rounded=0;orthogonalLoop=1;jettySize=auto;html=1;entryX=0.5;entryY=1;entryDx=0;entryDy=0;entryPerimeter=0;" edge="1" parent="1" source="zHnRFIF9AN3d5s7f-52Q-14" target="zHnRFIF9AN3d5s7f-52Q-6">
          <mxGeometry relative="1" as="geometry" />
        </mxCell>
        <mxCell id="zHnRFIF9AN3d5s7f-52Q-21" value="" style="edgeStyle=orthogonalEdgeStyle;rounded=0;orthogonalLoop=1;jettySize=auto;html=1;" edge="1" parent="1" source="zHnRFIF9AN3d5s7f-52Q-18" target="zHnRFIF9AN3d5s7f-52Q-20">
          <mxGeometry relative="1" as="geometry" />
        </mxCell>
        <mxCell id="zHnRFIF9AN3d5s7f-52Q-18" value="j = j +1" style="rounded=0;whiteSpace=wrap;html=1;" vertex="1" parent="1">
          <mxGeometry x="200" y="740" width="120" height="60" as="geometry" />
        </mxCell>
        <mxCell id="zHnRFIF9AN3d5s7f-52Q-23" value="" style="edgeStyle=orthogonalEdgeStyle;rounded=0;orthogonalLoop=1;jettySize=auto;html=1;" edge="1" parent="1" source="zHnRFIF9AN3d5s7f-52Q-20" target="zHnRFIF9AN3d5s7f-52Q-22">
          <mxGeometry relative="1" as="geometry" />
        </mxCell>
        <mxCell id="zHnRFIF9AN3d5s7f-52Q-27" style="edgeStyle=orthogonalEdgeStyle;rounded=0;orthogonalLoop=1;jettySize=auto;html=1;entryX=0;entryY=0.5;entryDx=0;entryDy=0;" edge="1" parent="1" source="zHnRFIF9AN3d5s7f-52Q-20" target="zHnRFIF9AN3d5s7f-52Q-4">
          <mxGeometry relative="1" as="geometry">
            <Array as="points">
              <mxPoint x="50" y="900" />
              <mxPoint x="50" y="320" />
            </Array>
          </mxGeometry>
        </mxCell>
        <mxCell id="zHnRFIF9AN3d5s7f-52Q-20" value="j &amp;lt;= i" style="rhombus;whiteSpace=wrap;html=1;" vertex="1" parent="1">
          <mxGeometry x="220" y="860" width="80" height="80" as="geometry" />
        </mxCell>
        <mxCell id="zHnRFIF9AN3d5s7f-52Q-22" value="&quot; * &quot;" style="shape=parallelogram;perimeter=parallelogramPerimeter;whiteSpace=wrap;html=1;fixedSize=1;" vertex="1" parent="1">
          <mxGeometry x="70" y="870" width="120" height="60" as="geometry" />
        </mxCell>
        <mxCell id="zHnRFIF9AN3d5s7f-52Q-28" value="Ya" style="text;html=1;whiteSpace=wrap;strokeColor=none;fillColor=none;align=center;verticalAlign=middle;rounded=0;" vertex="1" parent="1">
          <mxGeometry x="250" y="360" width="60" height="30" as="geometry" />
        </mxCell>
        <mxCell id="zHnRFIF9AN3d5s7f-52Q-29" value="Ya" style="text;html=1;whiteSpace=wrap;strokeColor=none;fillColor=none;align=center;verticalAlign=middle;rounded=0;" vertex="1" parent="1">
          <mxGeometry x="260" y="690" width="60" height="30" as="geometry" />
        </mxCell>
        <mxCell id="zHnRFIF9AN3d5s7f-52Q-30" value="Ya" style="text;html=1;whiteSpace=wrap;strokeColor=none;fillColor=none;align=center;verticalAlign=middle;rounded=0;" vertex="1" parent="1">
          <mxGeometry x="180" y="870" width="60" height="30" as="geometry" />
        </mxCell>
        <mxCell id="zHnRFIF9AN3d5s7f-52Q-31" value="Tidak" style="text;html=1;whiteSpace=wrap;strokeColor=none;fillColor=none;align=center;verticalAlign=middle;rounded=0;" vertex="1" parent="1">
          <mxGeometry x="310" y="620" width="60" height="30" as="geometry" />
        </mxCell>
        <mxCell id="zHnRFIF9AN3d5s7f-52Q-32" value="Tidak" style="text;html=1;whiteSpace=wrap;strokeColor=none;fillColor=none;align=center;verticalAlign=middle;rounded=0;" vertex="1" parent="1">
          <mxGeometry x="310" y="290" width="60" height="30" as="geometry" />
        </mxCell>
        <mxCell id="zHnRFIF9AN3d5s7f-52Q-33" style="edgeStyle=orthogonalEdgeStyle;rounded=0;orthogonalLoop=1;jettySize=auto;html=1;entryX=1.04;entryY=0.35;entryDx=0;entryDy=0;entryPerimeter=0;" edge="1" parent="1" source="zHnRFIF9AN3d5s7f-52Q-20" target="zHnRFIF9AN3d5s7f-52Q-6">
          <mxGeometry relative="1" as="geometry">
            <Array as="points">
              <mxPoint x="520" y="900" />
              <mxPoint x="520" y="311" />
            </Array>
          </mxGeometry>
        </mxCell>
        <mxCell id="zHnRFIF9AN3d5s7f-52Q-34" value="Tidak" style="text;html=1;whiteSpace=wrap;strokeColor=none;fillColor=none;align=center;verticalAlign=middle;rounded=0;" vertex="1" parent="1">
          <mxGeometry x="300" y="870" width="60" height="30" as="geometry" />
        </mxCell>
        <mxCell id="zHnRFIF9AN3d5s7f-52Q-35" value="Nama : A. Khoirur Roziqin&lt;div&gt;Nim&amp;nbsp; &amp;nbsp; : 251301022&lt;/div&gt;" style="text;html=1;whiteSpace=wrap;strokeColor=none;fillColor=none;align=left;verticalAlign=middle;rounded=0;fontSize=13;" vertex="1" parent="1">
          <mxGeometry x="350" y="200" width="220" height="50" as="geometry" />
        </mxCell>
      </root>
    </mxGraphModel>
  </diagram>
</mxfile>
